<svg id="Layer_1" data-name="Layer 1" xmlns="http://www.w3.org/2000/svg" viewBox="0 0 602 159"><defs><style>.cls-1{fill:#028f76;}.cls-2{fill:#434343;}.cls-3{fill:#fff;}</style></defs><title>Artboard 42</title><g id="_Group_" data-name="&lt;Group&gt;"><circle class="cls-1" cx="79.56" cy="79.54" r="79.37"/></g><g id="_Group_2" data-name="&lt;Group&gt;"><path class="cls-2" d="M270.51,62.22l-22.32,50.1H232.54l-22.32-50.1h14.32a5.9,5.9,0,0,1,3.08.75,3.87,3.87,0,0,1,1.69,1.86l8,22.47q1.05,2.75,1.86,5.36t1.42,5.22A72.22,72.22,0,0,1,244,87.3l8.33-22.47A3.9,3.9,0,0,1,254,63a5.41,5.41,0,0,1,2.89-.75Z"/><path class="cls-2" d="M295.49,48.5a7.06,7.06,0,0,1-.83,3.36,9,9,0,0,1-2.28,2.75A11.43,11.43,0,0,1,289,56.5a11.79,11.79,0,0,1-4.08.7,11,11,0,0,1-3.94-.7,11.3,11.3,0,0,1-3.25-1.88,8.77,8.77,0,0,1-2.22-2.75,7.25,7.25,0,0,1-.8-3.36,7.51,7.51,0,0,1,.8-3.43,9,9,0,0,1,2.22-2.8A10.66,10.66,0,0,1,281,40.38a11.31,11.31,0,0,1,3.94-.68,12.18,12.18,0,0,1,4.08.68,10.81,10.81,0,0,1,3.36,1.88,9.18,9.18,0,0,1,2.28,2.8A7.3,7.3,0,0,1,295.49,48.5Zm-1.78,13.72v50.1H276.51V62.22Z"/><path class="cls-2" d="M321.64,67.63a41.1,41.1,0,0,1,3.44-2.51,20.93,20.93,0,0,1,3.8-2,25,25,0,0,1,4.39-1.26,26.94,26.94,0,0,1,5.14-.46,22.8,22.8,0,0,1,8.35,1.42,17.41,17.41,0,0,1,6.13,4,16.59,16.59,0,0,1,3.77,6,22.06,22.06,0,0,1,1.28,7.61v31.84H340.74V80.49a8,8,0,0,0-1.94-5.73,7.51,7.51,0,0,0-5.72-2.05,13.54,13.54,0,0,0-5.3,1,21.81,21.81,0,0,0-4.8,2.83v35.75H305.76V62.22h10.66q3.22,0,4.22,2.51Z"/><path class="cls-2" d="M388.42,48.5a7.06,7.06,0,0,1-.83,3.36,9,9,0,0,1-2.28,2.75A11.43,11.43,0,0,1,382,56.5a11.79,11.79,0,0,1-4.08.7,10.94,10.94,0,0,1-3.94-.7,11.29,11.29,0,0,1-3.25-1.88,8.77,8.77,0,0,1-2.22-2.75,7.24,7.24,0,0,1-.81-3.36,7.5,7.5,0,0,1,.81-3.43,9,9,0,0,1,2.22-2.8,10.66,10.66,0,0,1,3.25-1.88,11.3,11.3,0,0,1,3.94-.68,12.18,12.18,0,0,1,4.08.68,10.81,10.81,0,0,1,3.36,1.88,9.18,9.18,0,0,1,2.28,2.8A7.3,7.3,0,0,1,388.42,48.5Zm-1.78,13.72v50.1H369.44V62.22Z"/><path class="cls-2" d="M419.29,113.1a23,23,0,0,1-7.24-1,14.76,14.76,0,0,1-5.27-2.95,12.4,12.4,0,0,1-3.25-4.61,15.75,15.75,0,0,1-1.11-6V72.56h-4.89a3.54,3.54,0,0,1-2.28-.75,2.64,2.64,0,0,1-.94-2.2V63.77l9.16-1.55L406.85,50q.67-2.32,3.78-2.32h9V62.32h14.27V72.56H419.62V97.44a4.27,4.27,0,0,0,1,2.87,3.49,3.49,0,0,0,2.8,1.13,6.27,6.27,0,0,0,1.58-.17,6.82,6.82,0,0,0,1.11-.39l.89-.39a2.56,2.56,0,0,1,1-.17,2.23,2.23,0,0,1,1.25.31,4.14,4.14,0,0,1,1,1l5.22,7.1a25.29,25.29,0,0,1-7.49,3.26A33.89,33.89,0,0,1,419.29,113.1Z"/><path class="cls-2" d="M467.31,61.45a37.76,37.76,0,0,1,11.94,1.79,27,27,0,0,1,9.24,5.12,23,23,0,0,1,6,8.09,25.85,25.85,0,0,1,2.14,10.7A26.32,26.32,0,0,1,494.48,98a23.13,23.13,0,0,1-6,8.17,27,27,0,0,1-9.24,5.17,37.26,37.26,0,0,1-11.94,1.81,37.69,37.69,0,0,1-12-1.81,27.6,27.6,0,0,1-9.33-5.17A22.82,22.82,0,0,1,439.91,98a26.3,26.3,0,0,1-2.14-10.8,25.84,25.84,0,0,1,2.14-10.7A22.71,22.71,0,0,1,446,68.36a27.51,27.51,0,0,1,9.33-5.12A38.21,38.21,0,0,1,467.31,61.45Zm0,40.54q5.94,0,8.74-3.65t2.8-11.09q0-7.44-2.8-11.06t-8.74-3.62q-6.11,0-8.94,3.62t-2.83,11.06q0,7.44,2.83,11.09T467.31,102Z"/><path class="cls-2" d="M521.38,70a22.12,22.12,0,0,1,6.13-6.38,14,14,0,0,1,8-2.32,11.39,11.39,0,0,1,6.33,1.59l-1.11,11a2.27,2.27,0,0,1-.92,1.45,3.37,3.37,0,0,1-1.75.39q-.45,0-1.17,0l-1.5-.12-1.58-.15q-.81-.07-1.47-.07a9.59,9.59,0,0,0-6,1.74,13.81,13.81,0,0,0-3.8,4.83v30.44H505.28V62.22H515.5a10,10,0,0,1,2.14.19,4,4,0,0,1,1.44.6,2.62,2.62,0,0,1,.89,1.09,8.9,8.9,0,0,1,.53,1.64Z"/><path class="cls-2" d="M560.8,90q.83,6.28,4.39,9.11a14.26,14.26,0,0,0,9.16,2.83,18.63,18.63,0,0,0,5.16-.63,28.2,28.2,0,0,0,3.86-1.4l3.11-1.4a7.26,7.26,0,0,1,3-.63,3.76,3.76,0,0,1,3.11,1.3l5,5.36a24.92,24.92,0,0,1-5.75,4.32,32,32,0,0,1-6.33,2.61,38.76,38.76,0,0,1-6.5,1.3,56,56,0,0,1-6.19.36,36.66,36.66,0,0,1-11.35-1.72,26.84,26.84,0,0,1-9.27-5.1,24,24,0,0,1-6.27-8.41,27.8,27.8,0,0,1-2.3-11.69,23.33,23.33,0,0,1,7.63-17.39,27.4,27.4,0,0,1,8.94-5.36A36.33,36.33,0,0,1,582.47,63a23.44,23.44,0,0,1,8.16,4.49A20.44,20.44,0,0,1,596,74.71a23.46,23.46,0,0,1,1.92,9.69,18.42,18.42,0,0,1-.17,2.75,4,4,0,0,1-.61,1.69,2.27,2.27,0,0,1-1.19.87A6.32,6.32,0,0,1,594,90Zm21.65-8.7a11.62,11.62,0,0,0-.53-3.48,8.08,8.08,0,0,0-1.72-3,8.7,8.7,0,0,0-3.14-2.15,12.12,12.12,0,0,0-4.72-.82q-4.89,0-7.66,2.44a12.06,12.06,0,0,0-3.66,7Z"/></g><g id="_Group_3" data-name="&lt;Group&gt;"><g id="_Group_4" data-name="&lt;Group&gt;"><ellipse class="cls-3" cx="52.05" cy="119.36" rx="7.23" ry="6.86" transform="translate(-46.5 34.25) rotate(-25.62)"/><path class="cls-3" d="M51.77,128.3a9.23,9.23,0,0,1-2.84-.45,8.63,8.63,0,0,1-5.2-4.5,9.23,9.23,0,0,1,16.64-8h0a9.06,9.06,0,0,1-4.49,12A9.49,9.49,0,0,1,51.77,128.3Zm.56-13.87a5.51,5.51,0,0,0-2.38.55,5.06,5.06,0,0,0-2.61,6.64A4.67,4.67,0,0,0,50.15,124a5.37,5.37,0,0,0,4-.3,5.06,5.06,0,0,0,2.61-6.65h0A4.84,4.84,0,0,0,52.33,114.43Z"/></g><g id="_Group_5" data-name="&lt;Group&gt;"><ellipse class="cls-3" cx="53.53" cy="94.61" rx="7.23" ry="6.86" transform="translate(-35.65 32.46) rotate(-25.62)"/><path class="cls-3" d="M53.26,103.54a8.85,8.85,0,0,1-8-4.94,9.23,9.23,0,0,1,16.64-8h0a9.06,9.06,0,0,1-4.49,12A9.48,9.48,0,0,1,53.26,103.54Zm.55-13.86a5.51,5.51,0,0,0-2.38.55,4.88,4.88,0,1,0,6.82,2.12A4.84,4.84,0,0,0,53.81,89.68Z"/></g><g id="_Group_6" data-name="&lt;Group&gt;"><ellipse class="cls-3" cx="74.85" cy="108.43" rx="7.23" ry="6.86" transform="translate(-39.53 43.04) rotate(-25.62)"/><path class="cls-3" d="M74.58,117.36a8.85,8.85,0,0,1-8-4.94,8.63,8.63,0,0,1-.26-6.87A9.5,9.5,0,0,1,78,99.94a8.63,8.63,0,0,1,5.2,4.5,9.06,9.06,0,0,1-4.49,12A9.49,9.49,0,0,1,74.58,117.36Zm.55-13.87a5.52,5.52,0,0,0-2.39.55A5.38,5.38,0,0,0,70,107a4.67,4.67,0,0,0,.12,3.71,5.24,5.24,0,0,0,9.43-4.52h0a4.67,4.67,0,0,0-2.82-2.42A5.24,5.24,0,0,0,75.14,103.49Z"/></g><g id="_Group_7" data-name="&lt;Group&gt;"><ellipse class="cls-3" cx="97.66" cy="97.49" rx="7.23" ry="6.86" transform="translate(-32.56 51.82) rotate(-25.62)"/><path class="cls-3" d="M97.38,106.42a9.22,9.22,0,0,1-2.84-.45,8.63,8.63,0,0,1-5.2-4.5,9.23,9.23,0,0,1,16.64-8h0a8.63,8.63,0,0,1,.26,6.87,9.37,9.37,0,0,1-4.74,5.11A9.5,9.5,0,0,1,97.38,106.42Zm.56-13.87a5.5,5.5,0,0,0-2.38.55,5.06,5.06,0,0,0-2.61,6.64,4.67,4.67,0,0,0,2.82,2.42,5.5,5.5,0,0,0,6.73-3.23,4.67,4.67,0,0,0-.12-3.71h0A4.84,4.84,0,0,0,97.94,92.55Z"/></g><g id="_Group_8" data-name="&lt;Group&gt;"><ellipse class="cls-3" cx="76.34" cy="83.67" rx="7.23" ry="6.86" transform="translate(-28.68 41.24) rotate(-25.62)"/><path class="cls-3" d="M76.06,92.61a9.22,9.22,0,0,1-2.84-.45,8.62,8.62,0,0,1-5.45-11.37,9.5,9.5,0,0,1,11.7-5.61,8.62,8.62,0,0,1,5.45,11.37,9.37,9.37,0,0,1-4.74,5.11A9.5,9.5,0,0,1,76.06,92.61Zm.56-13.87a5.52,5.52,0,0,0-2.39.55,5.39,5.39,0,0,0-2.73,2.93,4.62,4.62,0,0,0,2.94,6.14,5.5,5.5,0,0,0,6.73-3.23,4.67,4.67,0,0,0-.12-3.71h0A4.67,4.67,0,0,0,78.23,79,5.24,5.24,0,0,0,76.62,78.73Z"/></g><g id="_Group_9" data-name="&lt;Group&gt;"><ellipse class="cls-3" cx="56.1" cy="69.33" rx="7.23" ry="6.86" transform="translate(-24.47 31.08) rotate(-25.62)"/><path class="cls-3" d="M55.82,78.27A9.22,9.22,0,0,1,53,77.82a8.62,8.62,0,0,1-5.45-11.37,9.5,9.5,0,0,1,11.7-5.61,8.63,8.63,0,0,1,5.2,4.5h0a8.63,8.63,0,0,1,.26,6.87,9.37,9.37,0,0,1-4.74,5.11A9.5,9.5,0,0,1,55.82,78.27Zm.56-13.87a5.52,5.52,0,0,0-2.39.55,5.39,5.39,0,0,0-2.73,2.93A4.62,4.62,0,0,0,54.21,74a5.5,5.5,0,0,0,6.73-3.23,4.67,4.67,0,0,0-.12-3.71h0A4.67,4.67,0,0,0,58,64.65,5.24,5.24,0,0,0,56.38,64.39Z"/></g><g id="_Group_10" data-name="&lt;Group&gt;"><path class="cls-3" d="M52.6,101.3c.71.78,2.82-.78,6.75-.26a7.71,7.71,0,0,1,3.47,1.26A8.07,8.07,0,0,1,64,103.37a21.27,21.27,0,0,1,3.31,4.93,7,7,0,0,0,1.61,2.79,7.14,7.14,0,0,0,3.94,2.09L77.19,103c-2.55-.28-4.55-.56-5.94-.77a24.37,24.37,0,0,1-2.45-.47,22.82,22.82,0,0,1-3.14-1,7.51,7.51,0,0,1-1.38-.94,7.82,7.82,0,0,1-1.78-2.22c-1.83-3.32-1.76-5.61-2.8-6C57.4,90.65,51.15,99.71,52.6,101.3Z"/><path class="cls-3" d="M74.1,115.42l-1.57-.28a9.18,9.18,0,0,1-5-2.69,9,9,0,0,1-2-3.42,18.83,18.83,0,0,0-2.86-4.26,6.26,6.26,0,0,0-.93-.83,5.71,5.71,0,0,0-2.59-.92,11.49,11.49,0,0,0-4.2.26c-1.19.25-2.67.56-3.77-.64h0c-1.39-1.53-.81-4.2,1.73-7.93,1.6-2.36,4.71-6.14,7.57-5.07,1.44.54,1.89,1.89,2.35,3.32a19.47,19.47,0,0,0,1.49,3.59,5.81,5.81,0,0,0,1.33,1.67,5.47,5.47,0,0,0,.93.64,20.91,20.91,0,0,0,2.77.9,22.16,22.16,0,0,0,2.27.43c1.84.28,3.81.53,5.86.76l2.66.3Zm-7.64-12.3a25.92,25.92,0,0,1,2.67,4.31l.11.29a5,5,0,0,0,1.14,2,4.9,4.9,0,0,0,1.35,1l2.57-6.08c-1.16-.15-2.28-.3-3.36-.47a26.06,26.06,0,0,1-2.64-.51C67.69,103.5,67.07,103.32,66.46,103.12Zm-8.75-4.18a14.4,14.4,0,0,1,1.89.13,11.36,11.36,0,0,1,1.71.35c-.23-.34-.42-.66-.56-.92A23.24,23.24,0,0,1,59,94.21l-.12-.37a18.82,18.82,0,0,0-4,5.38A15.3,15.3,0,0,1,57.71,98.94Z"/></g><g id="_Group_11" data-name="&lt;Group&gt;"><path class="cls-3" d="M104,58.38c1-.84-.86-3.44-.12-8.19A9.36,9.36,0,0,1,105.55,46a9.78,9.78,0,0,1,1.32-1.44,18.46,18.46,0,0,1,6.07-3.87,17,17,0,0,1,2.85-.78l-10.52-6.65c0,1.9.24,4-.26,5.46l-1.34,3.78a9.11,9.11,0,0,1-1.18,1.65,9.5,9.5,0,0,1-2.75,2.09c-4.08,2.12-6.86,2-7.37,3.22C91.26,52.24,102.07,60.08,104,58.38Z"/><path class="cls-3" d="M103.26,60.61c-2.13,0-4.8-1.54-6.94-3.07-2.71-1.94-7.06-5.66-5.79-8.82.62-1.55,2.1-2,3.82-2.51a24,24,0,0,0,4.48-1.74A7.47,7.47,0,0,0,101,42.83a7.14,7.14,0,0,0,.84-1.15l1.28-3.61a11.18,11.18,0,0,0,.18-3.33c0-.49,0-1,0-1.46V29.65L121.19,41l-5,.92a15,15,0,0,0-2.52.69A16.63,16.63,0,0,0,108.25,46a7.94,7.94,0,0,0-1.09,1.17,7.44,7.44,0,0,0-1.27,3.3,14.38,14.38,0,0,0,.2,5.25c.26,1.42.56,3-.75,4.15A3.09,3.09,0,0,1,103.26,60.61ZM94.5,50.36c1,1.75,5.27,5,7.64,6a18.17,18.17,0,0,1-.2-6.48,12.27,12.27,0,0,1,1-3.36A11.87,11.87,0,0,1,100.67,48a27.85,27.85,0,0,1-5.17,2Zm12.82-13.42a8.54,8.54,0,0,1-.42,2.47L105.62,43a21,21,0,0,1,5.47-3.69Z"/></g><g id="_Group_12" data-name="&lt;Group&gt;"><path class="cls-3" d="M75.4,90.36c.71.78,2.82-.78,6.75-.26a7.71,7.71,0,0,1,3.47,1.26,8,8,0,0,1,1.21,1.06,37.47,37.47,0,0,1,3.31,4.93c.78,1.31,2.4,2.87,6.11,3.83l-.14-10.3c-1.57,0-3.31.28-4.5-.11l-3.14-1a7.52,7.52,0,0,1-1.38-.94,7.84,7.84,0,0,1-1.78-2.22c-1.83-3.32-1.76-5.61-2.8-6C80.2,79.71,74,88.77,75.4,90.36Z"/><path class="cls-3" d="M98.28,103.78l-2.54-.66c-3.52-.91-6-2.51-7.33-4.74a34,34,0,0,0-3-4.54,6.3,6.3,0,0,0-.93-.83,5.7,5.7,0,0,0-2.59-.92,11.48,11.48,0,0,0-4.2.26c-1.19.25-2.67.56-3.77-.64h0c-1.39-1.53-.81-4.19,1.72-7.92,1.6-2.36,4.71-6.15,7.57-5.08,1.45.54,1.89,1.89,2.35,3.32a19.42,19.42,0,0,0,1.49,3.59,5.83,5.83,0,0,0,1.33,1.67,5.48,5.48,0,0,0,.87.61l3,1a9.33,9.33,0,0,0,2.62.06l1.21-.05,2-.05ZM89.12,92.07a50.62,50.62,0,0,1,2.75,4.28,5.48,5.48,0,0,0,2.34,2L94.14,93a9,9,0,0,1-3.16-.3ZM80.52,88a14.4,14.4,0,0,1,1.89.13,11.35,11.35,0,0,1,1.71.35c-.23-.34-.42-.66-.57-.92a23.2,23.2,0,0,1-1.79-4.29l-.12-.36a18.81,18.81,0,0,0-4,5.38A15.31,15.31,0,0,1,80.52,88Z"/></g><g id="_Group_13" data-name="&lt;Group&gt;"><ellipse class="cls-3" cx="78.91" cy="58.39" rx="7.23" ry="6.86" transform="translate(-17.49 39.87) rotate(-25.62)"/><path class="cls-3" d="M78.64,67.32a8.85,8.85,0,0,1-8-4.94,9.23,9.23,0,0,1,16.64-8h0a9.06,9.06,0,0,1-4.49,12A9.49,9.49,0,0,1,78.64,67.32Zm.55-13.86A5.51,5.51,0,0,0,76.8,54a4.88,4.88,0,1,0,6.82,2.12h0A4.84,4.84,0,0,0,79.19,53.46Z"/></g><g id="_Group_14" data-name="&lt;Group&gt;"><ellipse class="cls-3" cx="99.14" cy="72.73" rx="7.23" ry="6.86" transform="translate(-21.7 50.03) rotate(-25.62)"/><path class="cls-3" d="M98.86,81.67A9.23,9.23,0,0,1,96,81.22a8.63,8.63,0,0,1-5.2-4.5,9.23,9.23,0,0,1,16.64-8h0a8.63,8.63,0,0,1,.26,6.87A9.37,9.37,0,0,1,103,80.72,9.5,9.5,0,0,1,98.86,81.67Zm.56-13.87a5.51,5.51,0,0,0-2.38.55A5.06,5.06,0,0,0,94.43,75a4.67,4.67,0,0,0,2.82,2.42A5.5,5.5,0,0,0,104,74.18a4.67,4.67,0,0,0-.12-3.71A4.84,4.84,0,0,0,99.42,67.8Z"/></g><g id="_Group_15" data-name="&lt;Group&gt;"><ellipse class="cls-3" cx="58.67" cy="44.05" rx="7.23" ry="6.86" transform="translate(-13.28 29.71) rotate(-25.62)"/><path class="cls-3" d="M58.4,53a8.85,8.85,0,0,1-8-4.94,8.63,8.63,0,0,1-.26-6.87,9.5,9.5,0,0,1,11.7-5.61,8.63,8.63,0,0,1,5.2,4.5A9.06,9.06,0,0,1,62.5,52,9.48,9.48,0,0,1,58.4,53ZM59,39.12a5.52,5.52,0,0,0-2.39.55,5.38,5.38,0,0,0-2.73,2.93A4.67,4.67,0,0,0,54,46.31a5.24,5.24,0,0,0,9.43-4.52h0a4.67,4.67,0,0,0-2.82-2.42A5.24,5.24,0,0,0,59,39.12Z"/></g><g id="_Group_16" data-name="&lt;Group&gt;"><ellipse class="cls-3" cx="119.38" cy="87.07" rx="7.23" ry="6.86" transform="translate(-25.91 60.19) rotate(-25.62)"/><path class="cls-3" d="M119.1,96a9.22,9.22,0,0,1-2.84-.45,8.63,8.63,0,0,1-5.2-4.5,9.23,9.23,0,0,1,16.64-8h0a8.63,8.63,0,0,1,.26,6.87,9.37,9.37,0,0,1-4.74,5.11A9.5,9.5,0,0,1,119.1,96Zm.56-13.87a5.51,5.51,0,0,0-2.38.55,5.06,5.06,0,0,0-2.61,6.64,4.67,4.67,0,0,0,2.82,2.42,5.5,5.5,0,0,0,6.73-3.23,4.67,4.67,0,0,0-.12-3.71A4.84,4.84,0,0,0,119.66,82.14Z"/></g><g id="_Group_17" data-name="&lt;Group&gt;"><path class="cls-3" d="M97.89,79.18c.67.82,2.85-.64,6.75.06a7.71,7.71,0,0,1,3.4,1.42,8.09,8.09,0,0,1,1.16,1.12,15.31,15.31,0,0,1,3,5l0,.1c.6,1.65,2.58,3.46,7.73,5l-1.46-11.17c-1.57,0-3.32.12-4.49-.32L111,79.18a7.54,7.54,0,0,1-1.33-1A7.85,7.85,0,0,1,108,75.88c-1.67-3.4-1.49-5.69-2.51-6.13C103.19,68.77,96.52,77.52,97.89,79.18Z"/><path class="cls-3" d="M122.38,94.65l-3-.88c-5.11-1.52-8.07-3.56-9-6.23l0-.11a13.25,13.25,0,0,0-2.63-4.3,6.32,6.32,0,0,0-.89-.87,5.73,5.73,0,0,0-2.54-1,11.52,11.52,0,0,0-4.21.07c-1.2.19-2.7.43-3.73-.82h0c-1.31-1.59-.61-4.23,2.1-7.83,1.71-2.28,5-5.92,7.8-4.71,1.42.61,1.79,2,2.19,3.42A19.44,19.44,0,0,0,109.75,75,5.84,5.84,0,0,0,111,76.73a5.5,5.5,0,0,0,.84.65l2.92,1.11a9.12,9.12,0,0,0,2.61.19h1.21l1.72,0Zm-8.23-8.47c.21.58,1,1.6,3.44,2.69l-.81-6.18h0a9.7,9.7,0,0,1-3.43-.45l-1.71-.65a17.24,17.24,0,0,1,2.49,4.5l-1.85.78ZM102.44,77a14.31,14.31,0,0,1,2.56.23,11.32,11.32,0,0,1,1.69.44c-.22-.35-.39-.68-.52-.95a23.23,23.23,0,0,1-1.59-4.37l-.1-.37a18.81,18.81,0,0,0-4.28,5.18A15.86,15.86,0,0,1,102.44,77Z"/></g><g id="_Group_18" data-name="&lt;Group&gt;"><path class="cls-3" d="M77.65,64.84c.67.82,2.85-.64,6.75.06a7.71,7.71,0,0,1,3.4,1.42A8,8,0,0,1,89,67.44,15.22,15.22,0,0,1,92,72.52c.14.4.11.43.2.64a4.83,4.83,0,0,0,3.17,2.36,6.89,6.89,0,0,1,.05-4.91,6.76,6.76,0,0,1,2.45-3L93.81,66l-3.08-1.17a7.52,7.52,0,0,1-1.33-1,7.82,7.82,0,0,1-1.67-2.3c-1.67-3.4-1.49-5.69-2.51-6.13C82.95,54.43,76.28,63.19,77.65,64.84Z"/><path class="cls-3" d="M98.69,78.61l-3.86-1.18A6.57,6.57,0,0,1,90.41,74a3.13,3.13,0,0,1-.19-.56c0-.05,0-.12-.07-.24a13.38,13.38,0,0,0-2.66-4.38,6.3,6.3,0,0,0-.89-.87,5.7,5.7,0,0,0-2.54-1,11.59,11.59,0,0,0-4.21.07c-1.2.19-2.7.43-3.73-.82h0c-1.31-1.59-.61-4.23,2.1-7.83,1.71-2.28,5-5.92,7.8-4.71,1.42.61,1.79,2,2.19,3.42a19.47,19.47,0,0,0,1.32,3.66,5.82,5.82,0,0,0,1.25,1.73,5.55,5.55,0,0,0,.84.65l2.92,1.11,4.11,1.59,3.54,1.38L99,69.26a4.78,4.78,0,0,0-1.72,2.11,4.87,4.87,0,0,0,0,3.46ZM91.4,67.24a17.74,17.74,0,0,1,2,3.28q.1-.33.24-.66a8.53,8.53,0,0,1,.77-1.48l-1.29-.5ZM82.2,62.7a14.31,14.31,0,0,1,2.56.23,11.32,11.32,0,0,1,1.69.43c-.22-.35-.39-.68-.52-.95a23.2,23.2,0,0,1-1.59-4.37l-.1-.37A18.81,18.81,0,0,0,80,62.87,15.86,15.86,0,0,1,82.2,62.7Z"/></g><g id="_Group_19" data-name="&lt;Group&gt;"><path class="cls-3" d="M57.41,50.5c.67.82,2.85-.64,6.75.06A7.71,7.71,0,0,1,67.57,52a8.1,8.1,0,0,1,1.16,1.12,21.68,21.68,0,0,1,3.07,5.08,15.06,15.06,0,0,0,4.36,5.34L78.07,52c-1.57,0-3.32.13-4.49-.32l-3.08-1.17a7.51,7.51,0,0,1-1.33-1,7.83,7.83,0,0,1-1.67-2.3C65.82,43.8,66,41.51,65,41.07,62.71,40.09,56,48.85,57.41,50.5Z"/><path class="cls-3" d="M77.58,67.24l-2.67-2.16A17.28,17.28,0,0,1,70,59a19.55,19.55,0,0,0-2.74-4.57,6.33,6.33,0,0,0-.89-.87,5.7,5.7,0,0,0-2.54-1,11.55,11.55,0,0,0-4.21.07c-1.2.19-2.7.44-3.73-.82h0c-1.31-1.59-.61-4.23,2.1-7.83,1.71-2.28,5-5.92,7.8-4.71,1.42.61,1.79,2,2.19,3.42a19.44,19.44,0,0,0,1.32,3.66A5.84,5.84,0,0,0,70.53,48a5.46,5.46,0,0,0,.84.65l2.92,1.11A9.39,9.39,0,0,0,76.9,50h1.22l2.31.05ZM71.11,52.88a26.48,26.48,0,0,1,2.53,4.51,10.68,10.68,0,0,0,1.19,1.94L75.71,54a8.5,8.5,0,0,1-2.85-.45ZM62,48.36a14.31,14.31,0,0,1,2.56.23,11.33,11.33,0,0,1,1.69.43c-.22-.35-.39-.68-.52-.95a23.23,23.23,0,0,1-1.59-4.37l-.1-.37a18.81,18.81,0,0,0-4.28,5.18A15.86,15.86,0,0,1,62,48.36Z"/></g><g id="_Group_20" data-name="&lt;Group&gt;"><path class="cls-3" d="M54.7,75.92c.68.81,2.84-.67,6.75,0a7.71,7.71,0,0,1,3.42,1.39A8.09,8.09,0,0,1,66,78.42a15.23,15.23,0,0,1,3.12,5c.1.27.16.47.16.48.05.17,1.55,1.36,6.18,4.74l-.13-11.46c-1.57,0-3.32.16-4.5-.28l-3.1-1.15a7.5,7.5,0,0,1-1.34-1,7.82,7.82,0,0,1-1.69-2.29c-1.7-3.39-1.54-5.68-2.57-6.11C59.9,65.46,53.32,74.28,54.7,75.92Z"/><path class="cls-3" d="M77.54,92.66,74.32,90.3c-6.63-4.84-6.67-5-6.91-5.77,0,0-.06-.2-.13-.4a13.21,13.21,0,0,0-2.7-4.36,6.29,6.29,0,0,0-.9-.87,5.73,5.73,0,0,0-2.55-1,11.59,11.59,0,0,0-4.21.1c-1.2.21-2.69.46-3.74-.79h0c-1.33-1.58-.65-4.22,2-7.85,1.69-2.29,4.94-6,7.75-4.78,1.42.6,1.81,2,2.22,3.4a19.47,19.47,0,0,0,1.36,3.65,5.8,5.8,0,0,0,1.26,1.72,5.49,5.49,0,0,0,.85.65l2.93,1.08a9.41,9.41,0,0,0,2.62.16h1.21l2,0Zm-6.48-9.8c.32.26,1,.79,2.39,1.84l-.06-5.45a9.07,9.07,0,0,1-3.21-.42l-1.71-.63A17.18,17.18,0,0,1,71,82.79Zm-11.7-9.12a14.38,14.38,0,0,1,2.43.21,11.4,11.4,0,0,1,1.7.42c-.22-.35-.39-.67-.53-.94a23.24,23.24,0,0,1-1.63-4.35l-.11-.37A18.83,18.83,0,0,0,57,73.93,15.84,15.84,0,0,1,59.37,73.74Z"/></g></g></svg>